<?xml version="1.0" encoding="us-ascii" standalone="no"?><svg xmlns="http://www.w3.org/2000/svg" xmlns:xlink="http://www.w3.org/1999/xlink" contentStyleType="text/css" height="619px" preserveAspectRatio="none" style="width:689px;height:619px;background:#FFFFFF;" version="1.1" viewBox="0 0 689 619" width="689px" zoomAndPan="magnify"><defs/><g><!--cluster Java--><g id="cluster_Java"><path d="M19.5,7 L527.5,7 A12.5,12.5 0 0 1 540,19.5 L540,28.2969 L7,28.2969 L7,19.5 A12.5,12.5 0 0 1 19.5,7 " fill="#F1F1F1" style="stroke:#F1F1F1;stroke-width:1.0;"/><rect fill="none" height="158" rx="12.5" ry="12.5" style="stroke:#181818;stroke-width:0.5;" width="533" x="7" y="7"/><line style="stroke:#181818;stroke-width:0.5;" x1="7" x2="540" y1="28.2969" y2="28.2969"/><text fill="#000000" font-family="sans-serif" font-size="14" lengthAdjust="spacing" textLength="26" x="260.5" y="23.9951">Java</text></g><!--cluster Gui--><g id="cluster_Gui"><path d="M43.5,50 L503.5,50 A12.5,12.5 0 0 1 516,62.5 L516,71.2969 L31,71.2969 L31,62.5 A12.5,12.5 0 0 1 43.5,50 " fill="#F1F1F1" style="stroke:#F1F1F1;stroke-width:1.0;"/><rect fill="none" height="91" rx="12.5" ry="12.5" style="stroke:#181818;stroke-width:0.5;" width="485" x="31" y="50"/><line style="stroke:#181818;stroke-width:0.5;" x1="31" x2="516" y1="71.2969" y2="71.2969"/><text fill="#000000" font-family="sans-serif" font-size="14" lengthAdjust="spacing" textLength="23" x="262" y="66.9951">Gui</text></g><!--cluster Scala--><g id="cluster_Scala"><path d="M226.5,214 L663.5,214 A12.5,12.5 0 0 1 676,226.5 L676,235.2969 L214,235.2969 L214,226.5 A12.5,12.5 0 0 1 226.5,214 " fill="#F1F1F1" style="stroke:#F1F1F1;stroke-width:1.0;"/><rect fill="none" height="399" rx="12.5" ry="12.5" style="stroke:#181818;stroke-width:0.5;" width="462" x="214" y="214"/><line style="stroke:#181818;stroke-width:0.5;" x1="214" x2="676" y1="235.2969" y2="235.2969"/><text fill="#000000" font-family="sans-serif" font-size="14" lengthAdjust="spacing" textLength="36" x="427" y="230.9951">Scala</text></g><!--cluster converter--><g id="cluster_converter"><path d="M250.5,257 L639.5,257 A12.5,12.5 0 0 1 652,269.5 L652,278.2969 L238,278.2969 L238,269.5 A12.5,12.5 0 0 1 250.5,257 " fill="#F1F1F1" style="stroke:#F1F1F1;stroke-width:1.0;"/><rect fill="none" height="332" rx="12.5" ry="12.5" style="stroke:#181818;stroke-width:0.5;" width="414" x="238" y="257"/><line style="stroke:#181818;stroke-width:0.5;" x1="238" x2="652" y1="278.2969" y2="278.2969"/><text fill="#000000" font-family="sans-serif" font-size="14" lengthAdjust="spacing" textLength="66" x="412" y="273.9951">converter</text></g><rect fill="#F1F1F1" height="40" rx="12.5" ry="12.5" style="stroke:#181818;stroke-width:0.5;" width="94" x="406" y="85"/><text fill="#000000" font-family="sans-serif" font-size="14" lengthAdjust="spacing" textLength="84" x="411" y="109.8467">plot_section</text><rect fill="#F1F1F1" height="40" rx="12.5" ry="12.5" style="stroke:#181818;stroke-width:0.5;" width="187" x="183.5" y="85"/><text fill="#000000" font-family="sans-serif" font-size="14" lengthAdjust="spacing" textLength="177" x="188.5" y="109.8467">text_commandos_section</text><rect fill="#F1F1F1" height="40" rx="12.5" ry="12.5" style="stroke:#181818;stroke-width:0.5;" width="101" x="47.5" y="85"/><text fill="#000000" font-family="sans-serif" font-size="14" lengthAdjust="spacing" textLength="91" x="52.5" y="109.8467">error_section</text><rect fill="#F1F1F1" height="40" rx="12.5" ry="12.5" style="stroke:#181818;stroke-width:0.5;" width="54" x="302" y="292"/><text fill="#000000" font-family="sans-serif" font-size="14" lengthAdjust="spacing" textLength="44" x="307" y="316.8467">parser</text><path d="M266,409 L623.5,409 A12.5,12.5 0 0 1 636,421.5 L636,435.2969 L253.5,435.2969 L253.5,421.5 A12.5,12.5 0 0 1 266,409 " fill="#F1F1F1" style="stroke:#F1F1F1;stroke-width:1.0;"/><rect fill="none" height="164.2969" rx="12.5" ry="12.5" style="stroke:#181818;stroke-width:0.5;" width="382.5" x="253.5" y="409"/><line style="stroke:#181818;stroke-width:0.5;" x1="253.5" x2="636" y1="435.2969" y2="435.2969"/><text fill="#000000" font-family="sans-serif" font-size="14" lengthAdjust="spacing" textLength="104" x="392.75" y="426.9951">draw_functions</text><rect fill="#F1F1F1" height="40" rx="12.5" ry="12.5" style="stroke:#181818;stroke-width:0.5;" width="142" x="265.5" y="447.2969"/><text fill="#000000" font-family="sans-serif" font-size="14" lengthAdjust="spacing" textLength="132" x="270.5" y="472.1436">draw_boundingBox</text><rect fill="#F1F1F1" height="40" rx="12.5" ry="12.5" style="stroke:#181818;stroke-width:0.5;" width="71" x="426" y="447.2969"/><text fill="#000000" font-family="sans-serif" font-size="14" lengthAdjust="spacing" textLength="61" x="431" y="472.1436">drawLine</text><rect fill="#F1F1F1" height="40" rx="12.5" ry="12.5" style="stroke:#181818;stroke-width:0.5;" width="113" x="515" y="447.2969"/><text fill="#000000" font-family="sans-serif" font-size="14" lengthAdjust="spacing" textLength="103" x="520" y="472.1436">drawRectangle</text><rect fill="#F1F1F1" height="40" rx="12.5" ry="12.5" style="stroke:#181818;stroke-width:0.5;" width="81" x="296" y="523.2969"/><text fill="#000000" font-family="sans-serif" font-size="14" lengthAdjust="spacing" textLength="71" x="301" y="548.1436">drawCircle</text><rect fill="#F1F1F1" height="40" rx="12.5" ry="12.5" style="stroke:#181818;stroke-width:0.5;" width="76" x="423.5" y="523.2969"/><text fill="#000000" font-family="sans-serif" font-size="14" lengthAdjust="spacing" textLength="66" x="428.5" y="548.1436">draw_text</text><!--link draw_boundingBox to drawCircle--><!--link drawLine to draw_text--><!--link text_commandos_section to parser--><g id="link_text_commandos_section_parser"><path d="M270.22,125.3 C264.61,144.11 258.51,173.39 265,198 C274.48,233.97 294.7767,265.6853 310.5267,287.1153 " fill="none" id="text_commandos_section-to-parser" style="stroke:#181818;stroke-width:1.0;"/><polygon fill="#181818" points="314.08,291.95,311.9732,282.3291,311.1189,287.9211,305.527,287.0668,314.08,291.95" style="stroke:#181818;stroke-width:1.0;"/><text fill="#000000" font-family="sans-serif" font-size="13" lengthAdjust="spacing" textLength="111" x="266" y="194.0669">Text commandos</text></g><!--link parser to draw_functions--><g id="link_parser_draw_functions"><path d="M341.63,332.28 C353.85,350.92 369.9113,375.4216 388.5813,403.9116 " fill="none" id="parser-to-draw_functions" style="stroke:#181818;stroke-width:1.0;"/><polygon fill="#181818" points="391.87,408.93,390.2826,399.2099,389.1294,404.748,383.5914,403.5948,391.87,408.93" style="stroke:#181818;stroke-width:1.0;"/><text fill="#000000" font-family="sans-serif" font-size="13" lengthAdjust="spacing" textLength="82" x="370" y="375.0669">Commandos</text></g><!--reverse link error_section to parser--><g id="link_error_section_parser"><path d="M108.0797,130.5049 C116.8197,150.4349 130.22,176.3 151,198 C195.94,244.92 264.14,281.1 301.73,298.88 " fill="none" id="error_section-backto-parser" style="stroke:#181818;stroke-width:1.0;"/><polygon fill="#181818" points="105.67,125.01,105.6213,134.8587,107.6781,129.589,112.9478,131.6458,105.67,125.01" style="stroke:#181818;stroke-width:1.0;"/><text fill="#000000" font-family="sans-serif" font-size="13" lengthAdjust="spacing" textLength="101" x="152" y="194.0669">Error messages</text></g><!--link parser to plot_section--><g id="link_parser_plot_section"><path d="M340.54,291.91 C364.14,252.91 414.5349,169.5941 438.2249,130.4241 " fill="none" id="parser-to-plot_section" style="stroke:#181818;stroke-width:1.0;"/><polygon fill="#181818" points="441.33,125.29,433.2497,130.921,438.7424,129.5684,440.0951,135.0611,441.33,125.29" style="stroke:#181818;stroke-width:1.0;"/><text fill="#000000" font-family="sans-serif" font-size="13" lengthAdjust="spacing" textLength="109" x="406" y="194.0669">text commandos</text></g><!--reverse link plot_section to draw_functions--><g id="link_plot_section_draw_functions"><path d="M483.8433,128.8964 C500.1133,142.4264 514.98,158.35 524,181 C526.8,188.02 525,190.51 524,198 C514.35,270.62 491.76,350.8 473.2,408.74 " fill="none" id="plot_section-backto-draw_functions" style="stroke:#181818;stroke-width:1.0;"/><polygon fill="#181818" points="479.23,125.06,483.5923,133.8901,483.0744,128.257,488.7075,127.739,479.23,125.06" style="stroke:#181818;stroke-width:1.0;"/><text fill="#000000" font-family="sans-serif" font-size="13" lengthAdjust="spacing" textLength="62" x="523" y="316.5669">pixel data</text></g><!--SRC=[TP91ReGm34NtEOKlm0LOTD5HDLBLLTjTLI4tSPb8u4H9cA4QSVS6w30abEpY_xxpPUUa5G6rDlo08Y-Tja4R5i8730JFU4Qu2eXdBXmx_NU_rsnZGkL9JiPK2jI7IfgsHLR6xq3ad769DeZXbk1DOfD6a8RFv0AvRH1qdbnML0ulrNV7KtU_ycJ8b-bOQQuVJR-3l6Yc7UarXaUkcptze9sCOgBchqBnST9A4NyM3sjJxXbZRDXgdFI23lSf_hy1A9IvSFJE8olXFMAmO68kGt7hliolXCC6wcp4aYMMy3HUeINliQQat_gtbDC7MRsRBMjkdJgixga1XG75Bm00]--></g></svg>