<?xml version="1.0" encoding="us-ascii" standalone="no"?><svg xmlns="http://www.w3.org/2000/svg" xmlns:xlink="http://www.w3.org/1999/xlink" contentStyleType="text/css" height="619px" preserveAspectRatio="none" style="width:604px;height:619px;background:#FFFFFF;" version="1.1" viewBox="0 0 604 619" width="604px" zoomAndPan="magnify"><defs/><g><!--cluster Java--><g id="cluster_Java"><path d="M19.5,7 L506.5,7 A12.5,12.5 0 0 1 519,19.5 L519,28.2969 L7,28.2969 L7,19.5 A12.5,12.5 0 0 1 19.5,7 " fill="#F1F1F1" style="stroke:#F1F1F1;stroke-width:1.0;"/><rect fill="none" height="158" rx="12.5" ry="12.5" style="stroke:#181818;stroke-width:0.5;" width="512" x="7" y="7"/><line style="stroke:#181818;stroke-width:0.5;" x1="7" x2="519" y1="28.2969" y2="28.2969"/><text fill="#000000" font-family="sans-serif" font-size="14" lengthAdjust="spacing" textLength="26" x="250" y="23.9951">Java</text></g><!--cluster Gui--><g id="cluster_Gui"><path d="M43.5,50 L482.5,50 A12.5,12.5 0 0 1 495,62.5 L495,71.2969 L31,71.2969 L31,62.5 A12.5,12.5 0 0 1 43.5,50 " fill="#F1F1F1" style="stroke:#F1F1F1;stroke-width:1.0;"/><rect fill="none" height="91" rx="12.5" ry="12.5" style="stroke:#181818;stroke-width:0.5;" width="464" x="31" y="50"/><line style="stroke:#181818;stroke-width:0.5;" x1="31" x2="495" y1="71.2969" y2="71.2969"/><text fill="#000000" font-family="sans-serif" font-size="14" lengthAdjust="spacing" textLength="23" x="251.5" y="66.9951">Gui</text></g><!--cluster Scala--><g id="cluster_Scala"><path d="M135.5,214 L578.5,214 A12.5,12.5 0 0 1 591,226.5 L591,235.2969 L123,235.2969 L123,226.5 A12.5,12.5 0 0 1 135.5,214 " fill="#F1F1F1" style="stroke:#F1F1F1;stroke-width:1.0;"/><rect fill="none" height="399" rx="12.5" ry="12.5" style="stroke:#181818;stroke-width:0.5;" width="468" x="123" y="214"/><line style="stroke:#181818;stroke-width:0.5;" x1="123" x2="591" y1="235.2969" y2="235.2969"/><text fill="#000000" font-family="sans-serif" font-size="14" lengthAdjust="spacing" textLength="36" x="339" y="230.9951">Scala</text></g><!--cluster Converter--><g id="cluster_Converter"><path d="M159.5,257 L554.5,257 A12.5,12.5 0 0 1 567,269.5 L567,278.2969 L147,278.2969 L147,269.5 A12.5,12.5 0 0 1 159.5,257 " fill="#F1F1F1" style="stroke:#F1F1F1;stroke-width:1.0;"/><rect fill="none" height="332" rx="12.5" ry="12.5" style="stroke:#181818;stroke-width:0.5;" width="420" x="147" y="257"/><line style="stroke:#181818;stroke-width:0.5;" x1="147" x2="567" y1="278.2969" y2="278.2969"/><text fill="#000000" font-family="sans-serif" font-size="14" lengthAdjust="spacing" textLength="68" x="323" y="273.9951">Converter</text></g><rect fill="#F1F1F1" height="40" rx="12.5" ry="12.5" style="stroke:#181818;stroke-width:0.5;" width="94" x="385" y="85"/><text fill="#000000" font-family="sans-serif" font-size="14" lengthAdjust="spacing" textLength="84" x="390" y="109.8467">plot_section</text><rect fill="#F1F1F1" height="40" rx="12.5" ry="12.5" style="stroke:#181818;stroke-width:0.5;" width="166" x="184" y="85"/><text fill="#000000" font-family="sans-serif" font-size="14" lengthAdjust="spacing" textLength="156" x="189" y="109.8467">text_comando_section</text><rect fill="#F1F1F1" height="40" rx="12.5" ry="12.5" style="stroke:#181818;stroke-width:0.5;" width="101" x="47.5" y="85"/><text fill="#000000" font-family="sans-serif" font-size="14" lengthAdjust="spacing" textLength="91" x="52.5" y="109.8467">error_section</text><rect fill="#F1F1F1" height="40" rx="12.5" ry="12.5" style="stroke:#181818;stroke-width:0.5;" width="54" x="240" y="292"/><text fill="#000000" font-family="sans-serif" font-size="14" lengthAdjust="spacing" textLength="44" x="245" y="316.8467">Parser</text><path d="M176,409 L538.5,409 A12.5,12.5 0 0 1 551,421.5 L551,435.2969 L163.5,435.2969 L163.5,421.5 A12.5,12.5 0 0 1 176,409 " fill="#F1F1F1" style="stroke:#F1F1F1;stroke-width:1.0;"/><rect fill="none" height="164.2969" rx="12.5" ry="12.5" style="stroke:#181818;stroke-width:0.5;" width="387.5" x="163.5" y="409"/><line style="stroke:#181818;stroke-width:0.5;" x1="163.5" x2="551" y1="435.2969" y2="435.2969"/><text fill="#000000" font-family="sans-serif" font-size="14" lengthAdjust="spacing" textLength="104" x="305.25" y="426.9951">draw_functions</text><rect fill="#F1F1F1" height="40" rx="12.5" ry="12.5" style="stroke:#181818;stroke-width:0.5;" width="142" x="175.5" y="447.2969"/><text fill="#000000" font-family="sans-serif" font-size="14" lengthAdjust="spacing" textLength="132" x="180.5" y="472.1436">draw_boundingBox</text><rect fill="#F1F1F1" height="40" rx="12.5" ry="12.5" style="stroke:#181818;stroke-width:0.5;" width="74" x="335.5" y="447.2969"/><text fill="#000000" font-family="sans-serif" font-size="14" lengthAdjust="spacing" textLength="64" x="340.5" y="472.1436">draw_line</text><rect fill="#F1F1F1" height="40" rx="12.5" ry="12.5" style="stroke:#181818;stroke-width:0.5;" width="115" x="428" y="447.2969"/><text fill="#000000" font-family="sans-serif" font-size="14" lengthAdjust="spacing" textLength="105" x="433" y="472.1436">draw_rectangle</text><rect fill="#F1F1F1" height="40" rx="12.5" ry="12.5" style="stroke:#181818;stroke-width:0.5;" width="86" x="203.5" y="523.2969"/><text fill="#000000" font-family="sans-serif" font-size="14" lengthAdjust="spacing" textLength="76" x="208.5" y="548.1436">draw_circle</text><rect fill="#F1F1F1" height="40" rx="12.5" ry="12.5" style="stroke:#181818;stroke-width:0.5;" width="76" x="334.5" y="523.2969"/><text fill="#000000" font-family="sans-serif" font-size="14" lengthAdjust="spacing" textLength="66" x="339.5" y="548.1436">draw_text</text><!--link draw_boundingBox to draw_circle--><!--link draw_line to draw_text--><!--link text_comando_section to Parser--><g id="link_text_comando_section_Parser"><path d="M267,125.29 C267,164.46 267,246.91 267,285.91 " fill="none" id="text_comando_section-to-Parser" style="stroke:#181818;stroke-width:1.0;"/><polygon fill="#181818" points="267,291.91,271,282.91,267,286.91,263,282.91,267,291.91" style="stroke:#181818;stroke-width:1.0;"/><text fill="#000000" font-family="sans-serif" font-size="13" lengthAdjust="spacing" textLength="106" x="268" y="194.0669">Text comandoes</text></g><!--link Parser to draw_functions--><g id="link_Parser_draw_functions"><path d="M276.8,332.28 C286.28,350.92 298.57,375.092 313.06,403.582 " fill="none" id="Parser-to-draw_functions" style="stroke:#181818;stroke-width:1.0;"/><polygon fill="#181818" points="315.78,408.93,315.2653,399.0946,313.5133,404.4733,308.1346,402.7213,315.78,408.93" style="stroke:#181818;stroke-width:1.0;"/><text fill="#000000" font-family="sans-serif" font-size="13" lengthAdjust="spacing" textLength="77" x="299" y="375.0669">Comandoes</text></g><!--reverse link error_section to Parser--><g id="link_error_section_Parser"><path d="M111.3922,130.3435 C122.2322,149.5235 137.25,174.31 156,198 C184.16,233.58 222.13,270.24 245.57,291.8 " fill="none" id="error_section-backto-Parser" style="stroke:#181818;stroke-width:1.0;"/><polygon fill="#181818" points="108.44,125.12,109.3859,134.9233,110.9001,129.4729,116.3506,130.9871,108.44,125.12" style="stroke:#181818;stroke-width:1.0;"/><text fill="#000000" font-family="sans-serif" font-size="13" lengthAdjust="spacing" textLength="101" x="157" y="194.0669">Error messeges</text></g><!--reverse link plot_section to draw_functions--><g id="link_plot_section_draw_functions"><path d="M428.3225,131.2255 C421.7025,176.0055 405.04,284.43 385,379 C382.94,388.72 380.62,398.88 378.21,408.93 " fill="none" id="plot_section-backto-draw_functions" style="stroke:#181818;stroke-width:1.0;"/><polygon fill="#181818" points="429.2,125.29,423.9268,133.6083,428.4688,130.2362,431.8408,134.7782,429.2,125.29" style="stroke:#181818;stroke-width:1.0;"/><text fill="#000000" font-family="sans-serif" font-size="13" lengthAdjust="spacing" textLength="62" x="417" y="316.5669">pixel data</text></g><!--SRC=[TPB1JiCm38RlUGg_G5-W1mwW2OaJ4jmGganYkaXf4ZdfLeJwxcJjkYqPoSt-Fzk_xEor8g31nnzG52Hh7xMpGeI8aU053mY_0j9R4y-ZFiVNd3SkTe7aKfXBaQROIJUWLQw24BFZJ9l5lCr_asXo0q_E7eWZyPsDL-H0N2GLux7x7ktIFTpK5CYN6wtIjdzqKmqnsb9DusGVRM-gWDGiw-ffJI8JIrFGVEorKcG_cuTgnulDUtgPi77pTSt_7GWQvOusLQuRRU4zGN26A8Wr3StM-xBUDbsdX4QViEp6BUnE8GmK0lK9BMwqbjn-gXQydiY0meZY3m00]--></g></svg>