<?xml version="1.0" encoding="us-ascii" standalone="no"?><svg xmlns="http://www.w3.org/2000/svg" xmlns:xlink="http://www.w3.org/1999/xlink" contentStyleType="text/css" height="1285px" preserveAspectRatio="none" style="width:1859px;height:1285px;background:#FFFFFF;" version="1.1" viewBox="0 0 1859 1285" width="1859px" zoomAndPan="magnify"><defs/><g><!--cluster Java--><g id="cluster_Java"><path d="M8.5,6 L40.5,6 A3.75,3.75 0 0 1 43,8.5 L50,28.2969 L569.5,28.2969 A2.5,2.5 0 0 1 572,30.7969 L572,524.5 A2.5,2.5 0 0 1 569.5,527 L8.5,527 A2.5,2.5 0 0 1 6,524.5 L6,8.5 A2.5,2.5 0 0 1 8.5,6 " fill="none" style="stroke:#000000;stroke-width:1.5;"/><line style="stroke:#000000;stroke-width:1.5;" x1="6" x2="50" y1="28.2969" y2="28.2969"/><text fill="#000000" font-family="sans-serif" font-size="14" font-weight="bold" lengthAdjust="spacing" textLength="31" x="10" y="20.9951">Java</text></g><!--cluster GUI_--><g id="cluster_GUI_"><path d="M30,321.5 L30,500.5 A2.5,2.5 0 0 0 32.5,503 L415.5,503 A2.5,2.5 0 0 0 418,500.5 L418,329 L408,319 L32.5,319 A2.5,2.5 0 0 0 30,321.5 " fill="none" style="stroke:#181818;stroke-width:1.0;"/><path d="M408,319 L408,326.5 A2.5,2.5 0 0 0 410.5,329 L418,329 " fill="none" style="stroke:#181818;stroke-width:1.0;"/><text fill="#000000" font-family="sans-serif" font-size="14" font-weight="bold" lengthAdjust="spacing" textLength="27" x="210.5" y="333.9951">GUI</text></g><!--cluster utils_java--><g id="cluster_utils_java"><path d="M30,51.5 L30,292.5 A2.5,2.5 0 0 0 32.5,295 L545.5,295 A2.5,2.5 0 0 0 548,292.5 L548,59 L538,49 L32.5,49 A2.5,2.5 0 0 0 30,51.5 " fill="none" style="stroke:#181818;stroke-width:1.0;"/><path d="M538,49 L538,56.5 A2.5,2.5 0 0 0 540.5,59 L548,59 " fill="none" style="stroke:#181818;stroke-width:1.0;"/><text fill="#000000" font-family="sans-serif" font-size="14" font-weight="bold" lengthAdjust="spacing" textLength="69" x="254.5" y="63.9951">utils.java</text></g><!--cluster Scala--><g id="cluster_Scala"><path d="M169.5,564 L211.5,564 A3.75,3.75 0 0 1 214,566.5 L221,586.2969 L1849.5,586.2969 A2.5,2.5 0 0 1 1852,588.7969 L1852,1275.5 A2.5,2.5 0 0 1 1849.5,1278 L169.5,1278 A2.5,2.5 0 0 1 167,1275.5 L167,566.5 A2.5,2.5 0 0 1 169.5,564 " fill="none" style="stroke:#000000;stroke-width:1.5;"/><line style="stroke:#000000;stroke-width:1.5;" x1="167" x2="221" y1="586.2969" y2="586.2969"/><text fill="#000000" font-family="sans-serif" font-size="14" font-weight="bold" lengthAdjust="spacing" textLength="41" x="171" y="578.9951">Scala</text></g><!--cluster converter_scala--><g id="cluster_converter_scala"><path d="M191,609.5 L191,1058.5 A2.5,2.5 0 0 0 193.5,1061 L688.5,1061 A2.5,2.5 0 0 0 691,1058.5 L691,617 L681,607 L193.5,607 A2.5,2.5 0 0 0 191,609.5 " fill="none" style="stroke:#181818;stroke-width:1.0;"/><path d="M681,607 L681,614.5 A2.5,2.5 0 0 0 683.5,617 L691,617 " fill="none" style="stroke:#181818;stroke-width:1.0;"/><text fill="#000000" font-family="sans-serif" font-size="14" font-weight="bold" lengthAdjust="spacing" textLength="123" x="379.5" y="621.9951">converter.scala</text></g><!--cluster parser_scala--><g id="cluster_parser_scala"><path d="M731,788.5 L731,1251.5 A2.5,2.5 0 0 0 733.5,1254 L1345.5,1254 A2.5,2.5 0 0 0 1348,1251.5 L1348,796 L1338,786 L733.5,786 A2.5,2.5 0 0 0 731,788.5 " fill="none" style="stroke:#181818;stroke-width:1.0;"/><path d="M1338,786 L1338,793.5 A2.5,2.5 0 0 0 1340.5,796 L1348,796 " fill="none" style="stroke:#181818;stroke-width:1.0;"/><text fill="#000000" font-family="sans-serif" font-size="14" font-weight="bold" lengthAdjust="spacing" textLength="97" x="991" y="800.9951">parser.scala</text></g><!--cluster draw_scala--><g id="cluster_draw_scala"><path d="M1372,937 L1372,1223.5 A2.5,2.5 0 0 0 1374.5,1226 L1825.5,1226 A2.5,2.5 0 0 0 1828,1223.5 L1828,944.5 L1818,934.5 L1374.5,934.5 A2.5,2.5 0 0 0 1372,937 " fill="none" style="stroke:#181818;stroke-width:1.0;"/><path d="M1818,934.5 L1818,942 A2.5,2.5 0 0 0 1820.5,944.5 L1828,944.5 " fill="none" style="stroke:#181818;stroke-width:1.0;"/><text fill="#000000" font-family="sans-serif" font-size="14" font-weight="bold" lengthAdjust="spacing" textLength="85" x="1557.5" y="949.4951">draw.scala</text></g><!--class GUI--><g id="elem_GUI"><rect codeLine="6" fill="#F1F1F1" height="48" id="GUI" rx="2.5" ry="2.5" style="stroke:#181818;stroke-width:0.5;" width="56" x="261" y="354"/><ellipse cx="276" cy="370" fill="#ADD1B2" rx="11" ry="11" style="stroke:#181818;stroke-width:1.0;"/><path d="M278.9688,375.6406 Q278.3906,375.9375 277.75,376.0781 Q277.1094,376.2344 276.4063,376.2344 Q273.9063,376.2344 272.5781,374.5938 Q271.2656,372.9375 271.2656,369.8125 Q271.2656,366.6875 272.5781,365.0313 Q273.9063,363.375 276.4063,363.375 Q277.1094,363.375 277.75,363.5313 Q278.4063,363.6875 278.9688,363.9844 L278.9688,366.7031 Q278.3438,366.125 277.75,365.8594 Q277.1563,365.5781 276.5313,365.5781 Q275.1875,365.5781 274.5,366.6563 Q273.8125,367.7188 273.8125,369.8125 Q273.8125,371.9063 274.5,372.9844 Q275.1875,374.0469 276.5313,374.0469 Q277.1563,374.0469 277.75,373.7813 Q278.3438,373.5 278.9688,372.9219 L278.9688,375.6406 Z " fill="#000000"/><text fill="#000000" font-family="sans-serif" font-size="14" lengthAdjust="spacing" textLength="24" x="290" y="374.8467">GUI</text><line style="stroke:#181818;stroke-width:0.5;" x1="262" x2="316" y1="386" y2="386"/><line style="stroke:#181818;stroke-width:0.5;" x1="262" x2="316" y1="394" y2="394"/></g><g id="elem_GMN5"><path d="M46.5,462 L46.5,487.1328 A0,0 0 0 0 46.5,487.1328 L401.5,487.1328 A0,0 0 0 0 401.5,487.1328 L401.5,472 L391.5,462 L235.99,462 L272.93,402.36 L227.99,462 L46.5,462 A0,0 0 0 0 46.5,462 " fill="#FEFFDD" style="stroke:#181818;stroke-width:0.5;"/><path d="M391.5,462 L391.5,472 L401.5,472 L391.5,462 " fill="#FEFFDD" style="stroke:#181818;stroke-width:0.5;"/><text fill="#000000" font-family="sans-serif" font-size="13" lengthAdjust="spacing" textLength="334" x="52.5" y="479.0669">We need to make a better implementsion of the GUI</text></g><!--class ResultFromScala--><g id="elem_ResultFromScala"><rect codeLine="17" fill="#F1F1F1" height="194.6719" id="ResultFromScala" rx="2.5" ry="2.5" style="stroke:#181818;stroke-width:0.5;" width="486" x="46" y="84"/><ellipse cx="227.25" cy="100" fill="#ADD1B2" rx="11" ry="11" style="stroke:#181818;stroke-width:1.0;"/><path d="M230.2188,105.6406 Q229.6406,105.9375 229,106.0781 Q228.3594,106.2344 227.6563,106.2344 Q225.1563,106.2344 223.8281,104.5938 Q222.5156,102.9375 222.5156,99.8125 Q222.5156,96.6875 223.8281,95.0313 Q225.1563,93.375 227.6563,93.375 Q228.3594,93.375 229,93.5313 Q229.6563,93.6875 230.2188,93.9844 L230.2188,96.7031 Q229.5938,96.125 229,95.8594 Q228.4063,95.5781 227.7813,95.5781 Q226.4375,95.5781 225.75,96.6563 Q225.0625,97.7188 225.0625,99.8125 Q225.0625,101.9063 225.75,102.9844 Q226.4375,104.0469 227.7813,104.0469 Q228.4063,104.0469 229,103.7813 Q229.5938,103.5 230.2188,102.9219 L230.2188,105.6406 Z " fill="#000000"/><text fill="#000000" font-family="sans-serif" font-size="14" lengthAdjust="spacing" textLength="115" x="247.75" y="104.8467">ResultFromScala</text><line style="stroke:#181818;stroke-width:0.5;" x1="47" x2="531" y1="116" y2="116"/><text fill="#000000" font-family="sans-serif" font-size="14" lengthAdjust="spacing" textLength="266" x="52" y="132.9951">_pixels: ArrayList&lt;ArrayList&lt;Integer&gt;&gt;</text><text fill="#000000" font-family="sans-serif" font-size="14" lengthAdjust="spacing" textLength="89" x="52" y="149.292">_error: String</text><line style="stroke:#181818;stroke-width:0.5;" x1="47" x2="531" y1="156.5938" y2="156.5938"/><text fill="#000000" font-family="sans-serif" font-size="14" lengthAdjust="spacing" textLength="474" x="52" y="173.5889">ResultFromScala(pixels: ArrayList&lt;ArrayList&lt;Integer&gt;&gt;, error: String)</text><text fill="#000000" font-family="sans-serif" font-size="14" lengthAdjust="spacing" textLength="4" x="52" y="189.8857">&#160;</text><text fill="#000000" font-family="sans-serif" font-size="14" lengthAdjust="spacing" textLength="140" x="52" y="206.1826">errorExist(): boolean</text><text fill="#000000" font-family="sans-serif" font-size="14" lengthAdjust="spacing" textLength="4" x="52" y="222.4795">&#160;</text><text fill="#000000" font-family="sans-serif" font-size="14" lengthAdjust="spacing" textLength="115" x="52" y="238.7764">getError(): String</text><text fill="#000000" font-family="sans-serif" font-size="14" lengthAdjust="spacing" textLength="4" x="52" y="255.0732">&#160;</text><text fill="#000000" font-family="sans-serif" font-size="14" lengthAdjust="spacing" textLength="292" x="52" y="271.3701">getPixels(): ArrayList&lt;ArrayList&lt;Integer&gt;&gt;</text></g><g id="elem_converter"><rect fill="#F1F1F1" height="77.1875" style="stroke:#181818;stroke-width:0.5;" width="329" x="325.5" y="642"/><text fill="#000000" font-family="sans-serif" font-size="14" lengthAdjust="spacing" textLength="66" x="457" y="656.9951">converter</text><line style="stroke:#181818;stroke-width:0.5;" x1="326.5" x2="653.5" y1="662.2969" y2="662.2969"/><text fill="#000000" font-family="sans-serif" font-size="14" lengthAdjust="spacing" textLength="187" x="331.5" y="679.292">pixelsCanvas: PixelsCanvas</text><text fill="#000000" font-family="sans-serif" font-size="14" lengthAdjust="spacing" textLength="122" x="331.5" y="695.5889">setBounds(): Unit</text><text fill="#000000" font-family="sans-serif" font-size="14" lengthAdjust="spacing" textLength="317" x="331.5" y="711.8857">convert(comandoes: String): ResultFromScala</text></g><!--class PixelsCanvas--><g id="elem_PixelsCanvas"><rect codeLine="43" fill="#F1F1F1" height="129.4844" id="PixelsCanvas" rx="2.5" ry="2.5" style="stroke:#181818;stroke-width:0.5;" width="412" x="263" y="779"/><ellipse cx="420.25" cy="795" fill="#ADD1B2" rx="11" ry="11" style="stroke:#181818;stroke-width:1.0;"/><path d="M423.2188,800.6406 Q422.6406,800.9375 422,801.0781 Q421.3594,801.2344 420.6563,801.2344 Q418.1563,801.2344 416.8281,799.5938 Q415.5156,797.9375 415.5156,794.8125 Q415.5156,791.6875 416.8281,790.0313 Q418.1563,788.375 420.6563,788.375 Q421.3594,788.375 422,788.5313 Q422.6563,788.6875 423.2188,788.9844 L423.2188,791.7031 Q422.5938,791.125 422,790.8594 Q421.4063,790.5781 420.7813,790.5781 Q419.4375,790.5781 418.75,791.6563 Q418.0625,792.7188 418.0625,794.8125 Q418.0625,796.9063 418.75,797.9844 Q419.4375,799.0469 420.7813,799.0469 Q421.4063,799.0469 422,798.7813 Q422.5938,798.5 423.2188,797.9219 L423.2188,800.6406 Z " fill="#000000"/><text fill="#000000" font-family="sans-serif" font-size="14" lengthAdjust="spacing" textLength="89" x="440.75" y="799.8467">PixelsCanvas</text><line style="stroke:#181818;stroke-width:0.5;" x1="264" x2="674" y1="811" y2="811"/><line style="stroke:#181818;stroke-width:0.5;" x1="264" x2="674" y1="819" y2="819"/><text fill="#000000" font-family="sans-serif" font-size="14" lengthAdjust="spacing" textLength="270" x="269" y="835.9951">boundingBox(p1: Point, p2: Point): Unit</text><text fill="#000000" font-family="sans-serif" font-size="14" lengthAdjust="spacing" textLength="359" x="269" y="852.292">line(command: Command, p1: Point, p2: Point): Unit</text><text fill="#000000" font-family="sans-serif" font-size="14" lengthAdjust="spacing" textLength="400" x="269" y="868.5889">rectangle(command: Command, p1: Point, p2: Point): Unit</text><text fill="#000000" font-family="sans-serif" font-size="14" lengthAdjust="spacing" textLength="356" x="269" y="884.8857">circle(command: Command, p1: Point, r: Float): Unit</text><text fill="#000000" font-family="sans-serif" font-size="14" lengthAdjust="spacing" textLength="374" x="269" y="901.1826">text(command: Command, p1: Point, text: String): Unit</text></g><g id="elem_GMN14"><path d="M207,1020 L207,1045.1328 A0,0 0 0 0 207,1045.1328 L675,1045.1328 A0,0 0 0 0 675,1045.1328 L675,1030 L665,1020 L446.75,1020 L459.48,908.07 L438.75,1020 L207,1020 A0,0 0 0 0 207,1020 " fill="#FEFFDD" style="stroke:#181818;stroke-width:0.5;"/><path d="M665,1020 L665,1030 L675,1030 L665,1020 " fill="#FEFFDD" style="stroke:#181818;stroke-width:0.5;"/><text fill="#000000" font-family="sans-serif" font-size="13" lengthAdjust="spacing" textLength="447" x="213" y="1037.0669">We need to desice how to merge the result of the pure draw_functions</text></g><g id="elem_functions"><rect fill="#F1F1F1" height="44.5938" style="stroke:#181818;stroke-width:0.5;" width="535" x="747.5" y="821"/><text fill="#000000" font-family="sans-serif" font-size="14" lengthAdjust="spacing" textLength="64" x="983" y="835.9951">functions</text><line style="stroke:#181818;stroke-width:0.5;" x1="748.5" x2="1281.5" y1="841.2969" y2="841.2969"/><text fill="#000000" font-family="sans-serif" font-size="14" lengthAdjust="spacing" textLength="523" x="753.5" y="858.292">parse(canvas: Canvas, str: String, defaultCommand: Command): ErrorOption</text></g><!--class Command--><g id="elem_Command"><rect codeLine="63" fill="#F1F1F1" height="80.5938" id="Command" rx="2.5" ry="2.5" style="stroke:#181818;stroke-width:0.5;" width="138" x="1194" y="992"/><ellipse cx="1224.75" cy="1008" fill="#EB937F" rx="11" ry="11" style="stroke:#181818;stroke-width:1.0;"/><path d="M1228.8594,1014 L1221.1406,1014 L1221.1406,1001.6094 L1228.8594,1001.6094 L1228.8594,1003.7656 L1223.5938,1003.7656 L1223.5938,1006.4375 L1228.3594,1006.4375 L1228.3594,1008.5938 L1223.5938,1008.5938 L1223.5938,1011.8438 L1228.8594,1011.8438 L1228.8594,1014 Z " fill="#000000"/><text fill="#000000" font-family="sans-serif" font-size="14" lengthAdjust="spacing" textLength="71" x="1242.25" y="1012.8467">Command</text><line style="stroke:#181818;stroke-width:0.5;" x1="1195" x2="1331" y1="1024" y2="1024"/><line style="stroke:#181818;stroke-width:0.5;" x1="1195" x2="1331" y1="1032" y2="1032"/><text fill="#000000" font-family="sans-serif" font-size="14" lengthAdjust="spacing" textLength="126" x="1200" y="1048.9951">draw(color: String)</text><text fill="#000000" font-family="sans-serif" font-size="14" lengthAdjust="spacing" textLength="106" x="1200" y="1065.292">fill(color: String)</text></g><!--class Point--><g id="elem_Point"><rect codeLine="68" fill="#F1F1F1" height="80.5938" id="Point" rx="2.5" ry="2.5" style="stroke:#181818;stroke-width:0.5;" width="67" x="833.5" y="1157"/><ellipse cx="848.5" cy="1173" fill="#F1F1F1" rx="11" ry="11" style="stroke:#181818;stroke-width:1.0;"/><path d="M847.9844,1173.5625 Q846.125,1172.8594 845.4688,1172.0938 Q844.8281,1171.3125 844.8281,1170 Q844.8281,1168.3125 845.9063,1167.3438 Q846.9844,1166.375 848.8594,1166.375 Q849.7188,1166.375 850.5625,1166.5781 Q851.4219,1166.7656 852.2656,1167.1563 L852.2656,1169.5469 Q851.4844,1168.9844 850.6563,1168.7031 Q849.8438,1168.4063 849.0469,1168.4063 Q848.1719,1168.4063 847.6875,1168.7656 Q847.2188,1169.125 847.2188,1169.7813 Q847.2188,1170.2969 847.5625,1170.6406 Q847.9063,1170.9688 849,1171.375 L850.0625,1171.7813 Q851.5469,1172.3281 852.25,1173.2344 Q852.9688,1174.1406 852.9688,1175.5156 Q852.9688,1177.3906 851.8594,1178.3125 Q850.75,1179.2344 848.5,1179.2344 Q847.5781,1179.2344 846.6563,1179.0156 Q845.7344,1178.7969 844.875,1178.375 L844.875,1175.8438 Q845.8438,1176.5313 846.7656,1176.875 Q847.6875,1177.2188 848.5781,1177.2188 Q849.4844,1177.2188 849.9844,1176.8125 Q850.4844,1176.3906 850.4844,1175.6563 Q850.4844,1175.0938 850.1406,1174.6875 Q849.8125,1174.2656 849.1875,1174.0156 L847.9844,1173.5625 Z " fill="#000000"/><text fill="#000000" font-family="sans-serif" font-size="14" lengthAdjust="spacing" textLength="35" x="862.5" y="1177.8467">Point</text><line style="stroke:#181818;stroke-width:0.5;" x1="834.5" x2="899.5" y1="1189" y2="1189"/><text fill="#000000" font-family="sans-serif" font-size="14" lengthAdjust="spacing" textLength="49" x="839.5" y="1205.9951">x: Float</text><text fill="#000000" font-family="sans-serif" font-size="14" lengthAdjust="spacing" textLength="49" x="839.5" y="1222.292">y: Float</text><line style="stroke:#181818;stroke-width:0.5;" x1="834.5" x2="899.5" y1="1229.5938" y2="1229.5938"/></g><!--class Canvas--><g id="elem_Canvas"><rect codeLine="73" fill="#F1F1F1" height="129.4844" id="Canvas" rx="2.5" ry="2.5" style="stroke:#181818;stroke-width:0.5;" width="412" x="747" y="968"/><ellipse cx="923.75" cy="984" fill="#B4A7E5" rx="11" ry="11" style="stroke:#181818;stroke-width:1.0;"/><path d="M919.6719,979.7656 L919.6719,977.6094 L927.0625,977.6094 L927.0625,979.7656 L924.5938,979.7656 L924.5938,987.8438 L927.0625,987.8438 L927.0625,990 L919.6719,990 L919.6719,987.8438 L922.1406,987.8438 L922.1406,979.7656 L919.6719,979.7656 Z " fill="#000000"/><text fill="#000000" font-family="sans-serif" font-size="14" font-style="italic" lengthAdjust="spacing" textLength="50" x="944.25" y="988.8467">Canvas</text><line style="stroke:#181818;stroke-width:0.5;" x1="748" x2="1158" y1="1000" y2="1000"/><line style="stroke:#181818;stroke-width:0.5;" x1="748" x2="1158" y1="1008" y2="1008"/><text fill="#000000" font-family="sans-serif" font-size="14" lengthAdjust="spacing" textLength="270" x="753" y="1024.9951">boundingBox(p1: Point, p2: Point): Unit</text><text fill="#000000" font-family="sans-serif" font-size="14" lengthAdjust="spacing" textLength="359" x="753" y="1041.292">line(command: Command, p1: Point, p2: Point): Unit</text><text fill="#000000" font-family="sans-serif" font-size="14" lengthAdjust="spacing" textLength="400" x="753" y="1057.5889">rectangle(command: Command, p1: Point, p2: Point): Unit</text><text fill="#000000" font-family="sans-serif" font-size="14" lengthAdjust="spacing" textLength="356" x="753" y="1073.8857">circle(command: Command, p1: Point, r: Float): Unit</text><text fill="#000000" font-family="sans-serif" font-size="14" lengthAdjust="spacing" textLength="374" x="753" y="1090.1826">text(command: Command, p1: Point, text: String): Unit</text></g><g id="elem_draw_functions"><rect fill="#F1F1F1" height="126.0781" style="stroke:#181818;stroke-width:0.5;" width="424" x="1388" y="969.5"/><text fill="#000000" font-family="sans-serif" font-size="14" lengthAdjust="spacing" textLength="104" x="1548" y="984.4951">draw_functions</text><line style="stroke:#181818;stroke-width:0.5;" x1="1389" x2="1811" y1="989.7969" y2="989.7969"/><text fill="#000000" font-family="sans-serif" font-size="14" lengthAdjust="spacing" textLength="176" x="1394" y="1006.792">type Pixels = List[List[Int]]</text><text fill="#000000" font-family="sans-serif" font-size="14" lengthAdjust="spacing" textLength="282" x="1394" y="1023.0889">boundingBox(p1: Point, p2: Point): Pixels</text><text fill="#000000" font-family="sans-serif" font-size="14" lengthAdjust="spacing" textLength="371" x="1394" y="1039.3857">line(command: Command, p1: Point, p2: Point): Pixels</text><text fill="#000000" font-family="sans-serif" font-size="14" lengthAdjust="spacing" textLength="412" x="1394" y="1055.6826">rectangle(command: Command, p1: Point, p2: Point): Pixels</text><text fill="#000000" font-family="sans-serif" font-size="14" lengthAdjust="spacing" textLength="368" x="1394" y="1071.9795">circle(command: Command, p1: Point, r: Float): Pixels</text><text fill="#000000" font-family="sans-serif" font-size="14" lengthAdjust="spacing" textLength="386" x="1394" y="1088.2764">text(command: Command, p1: Point, text: String): Pixels</text></g><g id="elem_GMN24"><path d="M1454.5,1185 L1454.5,1210.1328 A0,0 0 0 0 1454.5,1210.1328 L1745.5,1210.1328 A0,0 0 0 0 1745.5,1210.1328 L1745.5,1195 L1735.5,1185 L1604,1185 L1600,1095.59 L1596,1185 L1454.5,1185 A0,0 0 0 0 1454.5,1185 " fill="#FEFFDD" style="stroke:#181818;stroke-width:0.5;"/><path d="M1735.5,1185 L1735.5,1195 L1745.5,1195 L1735.5,1185 " fill="#FEFFDD" style="stroke:#181818;stroke-width:0.5;"/><text fill="#000000" font-family="sans-serif" font-size="13" lengthAdjust="spacing" textLength="270" x="1460.5" y="1202.0669">We need to define these drowing functions</text></g><!--link PixelsCanvas to draw_functions--><g id="link_PixelsCanvas_draw_functions"><path codeLine="99" d="M675.26,898.71 C694.01,902.36 712.79,905.55 731,908 C866.95,926.31 1213.91,897.59 1348,926.5 C1391.2,935.82 1430.8568,949.9125 1470.8168,967.0725 " fill="none" id="PixelsCanvas-to-draw_functions" style="stroke:#181818;stroke-width:1.0;"/><polygon fill="#181818" points="1476.33,969.44,1469.6386,962.2133,1471.7357,967.4671,1466.4819,969.5642,1476.33,969.44" style="stroke:#181818;stroke-width:1.0;"/></g><!--reverse link PixelsCanvas to Canvas--><g id="link_PixelsCanvas_Canvas"><path codeLine="100" d="M687.0185,914.0559 C703.9985,920.0659 703.86,920.25 720,926.5 C752.27,939 786.51,953.63 818.52,967.93 " fill="none" id="PixelsCanvas-backto-Canvas" style="stroke:#181818;stroke-width:1.0;stroke-dasharray:7.0,7.0;"/><polygon fill="none" points="670.05,908.05,685.0165,919.7121,689.0204,908.3998,670.05,908.05" style="stroke:#181818;stroke-width:1.0;"/></g><!--link Canvas to Point--><g id="link_Canvas_Point"><path codeLine="101" d="M919.26,1097.45 C908.72,1117.43 900.2006,1133.5837 890.8006,1151.3937 " fill="none" id="Canvas-to-Point" style="stroke:#181818;stroke-width:1.0;"/><polygon fill="#181818" points="888,1156.7,895.7384,1150.6077,890.3338,1152.2781,888.6634,1146.8735,888,1156.7" style="stroke:#181818;stroke-width:1.0;"/></g><!--link PixelsCanvas to Point--><g id="link_PixelsCanvas_Point"><path codeLine="102" d="M674.28,908.36 C681,913.91 687.29,919.94 693,926.5 C743.94,984.96 687.62,1032.06 730,1097 C755.38,1135.9 796.2875,1161.9296 827.9675,1178.2696 " fill="none" id="PixelsCanvas-to-Point" style="stroke:#181818;stroke-width:1.0;"/><polygon fill="#181818" points="833.3,1181.02,827.1349,1173.3394,828.8563,1178.728,823.4677,1180.4494,833.3,1181.02" style="stroke:#181818;stroke-width:1.0;"/></g><!--link converter to PixelsCanvas--><g id="link_converter_PixelsCanvas"><path codeLine="103" d="M485.08,719.25 C482.76,737 480.7183,752.7107 478.0783,772.8907 " fill="none" id="converter-to-PixelsCanvas" style="stroke:#181818;stroke-width:1.0;"/><polygon fill="#181818" points="477.3,778.84,482.4337,770.4349,477.9486,773.8822,474.5013,769.3972,477.3,778.84" style="stroke:#181818;stroke-width:1.0;"/></g><!--link functions to Canvas--><g id="link_functions_Canvas"><path codeLine="104" d="M1007.77,866.32 C999.56,891.08 987.6786,926.905 975.9986,962.125 " fill="none" id="functions-to-Canvas" style="stroke:#181818;stroke-width:1.0;"/><polygon fill="#181818" points="974.11,967.82,980.7396,960.5366,975.6839,963.0742,973.1463,958.0184,974.11,967.82" style="stroke:#181818;stroke-width:1.0;"/></g><!--reverse link ResultFromScala to converter--><g id="link_ResultFromScala_converter"><path codeLine="105" d="M399.0328,283.7392 C407.4028,293.9992 411.37,300.05 418,311 C474.74,404.69 473.57,438.56 489,547 C493.52,578.77 493.41,615.26 492.38,641.89 " fill="none" id="ResultFromScala-backto-converter" style="stroke:#181818;stroke-width:1.0;"/><polygon fill="#181818" points="395.24,279.09,397.8297,288.5923,398.4006,282.9643,404.0286,283.5353,395.24,279.09" style="stroke:#181818;stroke-width:1.0;"/></g><!--link functions to Command--><g id="link_functions_Command"><path codeLine="106" d="M1071.26,866.06 C1104.09,880.26 1145.17,900.94 1177,926.5 C1200.06,945.02 1217.6426,965.7637 1233.1826,987.0537 " fill="none" id="functions-to-Command" style="stroke:#181818;stroke-width:1.0;"/><polygon fill="#181818" points="1236.72,991.9,1234.6447,982.2723,1233.7722,987.8614,1228.183,986.9888,1236.72,991.9" style="stroke:#181818;stroke-width:1.0;"/></g><!--link converter to functions--><g id="link_converter_functions"><path codeLine="107" d="M612.43,719.04 C715.75,750.73 854.2737,793.2107 939.1137,819.2307 " fill="none" id="converter-to-functions" style="stroke:#181818;stroke-width:1.0;"/><polygon fill="#181818" points="944.85,820.99,937.4184,814.5269,940.0698,819.5239,935.0727,822.1753,944.85,820.99" style="stroke:#181818;stroke-width:1.0;"/></g><!--link GUI to converter--><g id="link_GUI_converter"><path codeLine="108" d="M317.15,390.12 C346.6,403.13 392.19,427.39 419,462 C460.72,515.86 477.4892,589.2395 484.6292,635.7295 " fill="none" id="GUI-to-converter" style="stroke:#181818;stroke-width:1.0;"/><polygon fill="#181818" points="485.54,641.66,488.1274,632.1571,484.781,636.7179,480.2201,633.3715,485.54,641.66" style="stroke:#181818;stroke-width:1.0;"/></g><!--reverse link ResultFromScala to GUI--><g id="link_ResultFromScala_GUI"><path codeLine="109" d="M289,285.18 C289,313.02 289,334.92 289,353.76 " fill="none" id="ResultFromScala-backto-GUI" style="stroke:#181818;stroke-width:1.0;"/><polygon fill="#181818" points="289,279.18,285,288.18,289,284.18,293,288.18,289,279.18" style="stroke:#181818;stroke-width:1.0;"/></g><!--SRC=[xLRVJzim47xFNt7ZXIArbRR7YbKQ22QcFQ0Xj8S9LMvoBG77Zco7jjhuttUsGnARX9MnnqM8EkUxxtvyvtCEzNqkIgPO0JmNQ7ObWbJcLYQ7xqh5rWK3pdQoCg0BD4om92bPUi_M25_O0uEV2T2poZd2v-iBODh-B6gnVLBEj1DsPFPfNXwJPYcaGLXAOsG1ScMD0fFl208n0oEXOFS839Pe32h8Yv9ZWSBeN0fhQMuni4QHEN3lglReWZweJCxrz8voER3HkzV5NPjQcyCtr1KtvqeMLodZBCfdKUPRv7e6dvHYkw-vDiVjwa8ONAEQpqCJL4gg6LmPbOjr4kn5paPxeOyXG3pgBxWhYDKxsvBrw6X69PSScO1X_JMQCsjYjJqu9B72fGlHQknNWaTuOeF-cgxgrjOpb4hnW8fudcgxvsXgP0iTSI6NTvYQLY6YoTVnb8a7HjMyxBmD9w_HdCXAP2wtQv6ROBVsD4fbmKGcKJVbdyKizlMyxwrk8574I-kQu4xaTbI-fvXbBimOoW_riYycUvHjG3QY6Ppw1TdiQQweWaoi-LimqbobVmAWJZtdalNQ6zoQbwsjHgVM0S9Zyep9QBWCKj-PCXdgF4MubHitSr1HVzhHeXojJuEch1H2fjXciQf4QcW4wNq63mrT7VIq5mmrT8CTDxIr6gLrG_jyng1DCmN6bCQAKRodKJ6fPkvC-oPD-feJHLKygKT-RSB43- -Cc_3KK9OyKkXpGP5Mb9xZD7AnhTiZ4EvYOGUB852j657s_oJzsvCKTAwbljEthlK7kZOy5X4VxcF3dqFu2FQM-E7-qLLnS_DQvZpE6xZh0VWBzdfGNibV3yAh6OmmXZ-n1iRMipcuebBQOQVjf9CRU_-_CEpQQpsuroQJUUmms3_-DPtM9pVfcBWKdoDvSNlFErbtgBTjPxTgOKU_AaaStz2HaIzrvAKDttxMJYQJJ6u4oHijB-_5_mq0]--></g></svg>