<?xml version="1.0" encoding="us-ascii" standalone="no"?><svg xmlns="http://www.w3.org/2000/svg" xmlns:xlink="http://www.w3.org/1999/xlink" contentStyleType="text/css" height="1505px" preserveAspectRatio="none" style="width:939px;height:1505px;background:#FFFFFF;" version="1.1" viewBox="0 0 939 1505" width="939px" zoomAndPan="magnify"><defs/><g><!--cluster Java--><g id="cluster_Java"><path d="M8.5,6 L40.5,6 A3.75,3.75 0 0 1 43,8.5 L50,28.2969 L231.5,28.2969 A2.5,2.5 0 0 1 234,30.7969 L234,375.5 A2.5,2.5 0 0 1 231.5,378 L8.5,378 A2.5,2.5 0 0 1 6,375.5 L6,8.5 A2.5,2.5 0 0 1 8.5,6 " fill="none" style="stroke:#000000;stroke-width:1.5;"/><line style="stroke:#000000;stroke-width:1.5;" x1="6" x2="50" y1="28.2969" y2="28.2969"/><text fill="#000000" font-family="sans-serif" font-size="14" font-weight="bold" lengthAdjust="spacing" textLength="31" x="10" y="20.9951">Java</text></g><!--cluster GUI_java--><g id="cluster_GUI_java"><path d="M63,51.5 L63,212.5 A2.5,2.5 0 0 0 65.5,215 L196.5,215 A2.5,2.5 0 0 0 199,212.5 L199,59 L189,49 L65.5,49 A2.5,2.5 0 0 0 63,51.5 " fill="none" style="stroke:#181818;stroke-width:1.0;"/><path d="M189,49 L189,56.5 A2.5,2.5 0 0 0 191.5,59 L199,59 " fill="none" style="stroke:#181818;stroke-width:1.0;"/><text fill="#000000" font-family="sans-serif" font-size="14" font-weight="bold" lengthAdjust="spacing" textLength="63" x="99.5" y="63.9951">GUI.java</text></g><!--cluster GUI_--><g id="cluster_GUI_"><path d="M87,94.5 L87,188.5 A2.5,2.5 0 0 0 89.5,191 L172.5,191 A2.5,2.5 0 0 0 175,188.5 L175,102 L165,92 L89.5,92 A2.5,2.5 0 0 0 87,94.5 " fill="none" style="stroke:#181818;stroke-width:1.0;"/><path d="M165,92 L165,99.5 A2.5,2.5 0 0 0 167.5,102 L175,102 " fill="none" style="stroke:#181818;stroke-width:1.0;"/><text fill="#000000" font-family="sans-serif" font-size="14" font-weight="bold" lengthAdjust="spacing" textLength="27" x="117.5" y="106.9951">GUI</text></g><!--cluster utils_java--><g id="cluster_utils_java"><path d="M30,241.5 L30,351.5 A2.5,2.5 0 0 0 32.5,354 L207.5,354 A2.5,2.5 0 0 0 210,351.5 L210,249 L200,239 L32.5,239 A2.5,2.5 0 0 0 30,241.5 " fill="none" style="stroke:#181818;stroke-width:1.0;"/><path d="M200,239 L200,246.5 A2.5,2.5 0 0 0 202.5,249 L210,249 " fill="none" style="stroke:#181818;stroke-width:1.0;"/><text fill="#000000" font-family="sans-serif" font-size="14" font-weight="bold" lengthAdjust="spacing" textLength="69" x="85.5" y="253.9951">utils.java</text></g><!--cluster Scala--><g id="cluster_Scala"><path d="M41.5,402 L83.5,402 A3.75,3.75 0 0 1 86,404.5 L93,424.2969 L929.5,424.2969 A2.5,2.5 0 0 1 932,426.7969 L932,1495.5 A2.5,2.5 0 0 1 929.5,1498 L41.5,1498 A2.5,2.5 0 0 1 39,1495.5 L39,404.5 A2.5,2.5 0 0 1 41.5,402 " fill="none" style="stroke:#000000;stroke-width:1.5;"/><line style="stroke:#000000;stroke-width:1.5;" x1="39" x2="93" y1="424.2969" y2="424.2969"/><text fill="#000000" font-family="sans-serif" font-size="14" font-weight="bold" lengthAdjust="spacing" textLength="41" x="43" y="416.9951">Scala</text></g><!--cluster converter_scala--><g id="cluster_converter_scala"><path d="M114,645.5 L114,752.5 A2.5,2.5 0 0 0 116.5,755 L477.5,755 A2.5,2.5 0 0 0 480,752.5 L480,653 L470,643 L116.5,643 A2.5,2.5 0 0 0 114,645.5 " fill="none" style="stroke:#181818;stroke-width:1.0;"/><path d="M470,643 L470,650.5 A2.5,2.5 0 0 0 472.5,653 L480,653 " fill="none" style="stroke:#181818;stroke-width:1.0;"/><text fill="#000000" font-family="sans-serif" font-size="14" font-weight="bold" lengthAdjust="spacing" textLength="123" x="235.5" y="657.9951">converter.scala</text></g><!--cluster parser_scala--><g id="cluster_parser_scala"><path d="M63,781.5 L63,1221.5 A2.5,2.5 0 0 0 65.5,1224 L905.5,1224 A2.5,2.5 0 0 0 908,1221.5 L908,789 L898,779 L65.5,779 A2.5,2.5 0 0 0 63,781.5 " fill="none" style="stroke:#181818;stroke-width:1.0;"/><path d="M898,779 L898,786.5 A2.5,2.5 0 0 0 900.5,789 L908,789 " fill="none" style="stroke:#181818;stroke-width:1.0;"/><text fill="#000000" font-family="sans-serif" font-size="14" font-weight="bold" lengthAdjust="spacing" textLength="97" x="437" y="793.9951">parser.scala</text></g><!--cluster draw_scala--><g id="cluster_draw_scala"><path d="M284,447.5 L284,570.5 A2.5,2.5 0 0 0 286.5,573 L905.5,573 A2.5,2.5 0 0 0 908,570.5 L908,455 L898,445 L286.5,445 A2.5,2.5 0 0 0 284,447.5 " fill="none" style="stroke:#181818;stroke-width:1.0;"/><path d="M898,445 L898,452.5 A2.5,2.5 0 0 0 900.5,455 L908,455 " fill="none" style="stroke:#181818;stroke-width:1.0;"/><text fill="#000000" font-family="sans-serif" font-size="14" font-weight="bold" lengthAdjust="spacing" textLength="85" x="553.5" y="459.9951">draw.scala</text></g><!--cluster parserTest_scala--><g id="cluster_parserTest_scala"><path d="M302,1296.5 L302,1471.5 A2.5,2.5 0 0 0 304.5,1474 L819.5,1474 A2.5,2.5 0 0 0 822,1471.5 L822,1304 L812,1294 L304.5,1294 A2.5,2.5 0 0 0 302,1296.5 " fill="none" style="stroke:#181818;stroke-width:1.0;"/><path d="M812,1294 L812,1301.5 A2.5,2.5 0 0 0 814.5,1304 L822,1304 " fill="none" style="stroke:#181818;stroke-width:1.0;"/><text fill="#000000" font-family="sans-serif" font-size="14" font-weight="bold" lengthAdjust="spacing" textLength="132" x="496" y="1308.9951">parserTest.scala</text></g><!--class GUI--><g id="elem_GUI"><rect codeLine="7" fill="#F1F1F1" height="48" id="GUI" rx="2.5" ry="2.5" style="stroke:#181818;stroke-width:0.5;" width="56" x="103" y="127"/><ellipse cx="118" cy="143" fill="#ADD1B2" rx="11" ry="11" style="stroke:#181818;stroke-width:1.0;"/><path d="M120.9688,148.6406 Q120.3906,148.9375 119.75,149.0781 Q119.1094,149.2344 118.4063,149.2344 Q115.9063,149.2344 114.5781,147.5938 Q113.2656,145.9375 113.2656,142.8125 Q113.2656,139.6875 114.5781,138.0313 Q115.9063,136.375 118.4063,136.375 Q119.1094,136.375 119.75,136.5313 Q120.4063,136.6875 120.9688,136.9844 L120.9688,139.7031 Q120.3438,139.125 119.75,138.8594 Q119.1563,138.5781 118.5313,138.5781 Q117.1875,138.5781 116.5,139.6563 Q115.8125,140.7188 115.8125,142.8125 Q115.8125,144.9063 116.5,145.9844 Q117.1875,147.0469 118.5313,147.0469 Q119.1563,147.0469 119.75,146.7813 Q120.3438,146.5 120.9688,145.9219 L120.9688,148.6406 Z " fill="#000000"/><text fill="#000000" font-family="sans-serif" font-size="14" lengthAdjust="spacing" textLength="24" x="132" y="147.8467">GUI</text><line style="stroke:#181818;stroke-width:0.5;" x1="104" x2="158" y1="159" y2="159"/><line style="stroke:#181818;stroke-width:0.5;" x1="104" x2="158" y1="167" y2="167"/></g><!--class ResultFromScala--><g id="elem_ResultFromScala"><rect codeLine="13" fill="#F1F1F1" height="64.2969" id="ResultFromScala" rx="2.5" ry="2.5" style="stroke:#181818;stroke-width:0.5;" width="147" x="46.5" y="274"/><ellipse cx="61.5" cy="290" fill="#ADD1B2" rx="11" ry="11" style="stroke:#181818;stroke-width:1.0;"/><path d="M64.4688,295.6406 Q63.8906,295.9375 63.25,296.0781 Q62.6094,296.2344 61.9063,296.2344 Q59.4063,296.2344 58.0781,294.5938 Q56.7656,292.9375 56.7656,289.8125 Q56.7656,286.6875 58.0781,285.0313 Q59.4063,283.375 61.9063,283.375 Q62.6094,283.375 63.25,283.5313 Q63.9063,283.6875 64.4688,283.9844 L64.4688,286.7031 Q63.8438,286.125 63.25,285.8594 Q62.6563,285.5781 62.0313,285.5781 Q60.6875,285.5781 60,286.6563 Q59.3125,287.7188 59.3125,289.8125 Q59.3125,291.9063 60,292.9844 Q60.6875,294.0469 62.0313,294.0469 Q62.6563,294.0469 63.25,293.7813 Q63.8438,293.5 64.4688,292.9219 L64.4688,295.6406 Z " fill="#000000"/><text fill="#000000" font-family="sans-serif" font-size="14" lengthAdjust="spacing" textLength="115" x="75.5" y="294.8467">ResultFromScala</text><line style="stroke:#181818;stroke-width:0.5;" x1="47.5" x2="192.5" y1="306" y2="306"/><text fill="#000000" font-family="sans-serif" font-size="14" lengthAdjust="spacing" textLength="12" x="52.5" y="322.9951">...</text><line style="stroke:#181818;stroke-width:0.5;" x1="47.5" x2="192.5" y1="330.2969" y2="330.2969"/></g><g id="elem_converter"><rect fill="#F1F1F1" height="60.8906" style="stroke:#181818;stroke-width:0.5;" width="333" x="130.5" y="678"/><text fill="#000000" font-family="sans-serif" font-size="14" lengthAdjust="spacing" textLength="66" x="264" y="692.9951">converter</text><line style="stroke:#181818;stroke-width:0.5;" x1="131.5" x2="462.5" y1="698.2969" y2="698.2969"/><text fill="#000000" font-family="sans-serif" font-size="14" lengthAdjust="spacing" textLength="187" x="136.5" y="715.292">pixelsCanvas: PixelsCanvas</text><text fill="#000000" font-family="sans-serif" font-size="14" lengthAdjust="spacing" textLength="321" x="136.5" y="731.5889">convert(commandos: String): ResultFromScala</text></g><g id="elem_functions"><rect fill="#F1F1F1" height="44.5938" style="stroke:#181818;stroke-width:0.5;" width="537" x="79.5" y="823.5"/><text fill="#000000" font-family="sans-serif" font-size="14" lengthAdjust="spacing" textLength="64" x="316" y="838.4951">functions</text><line style="stroke:#181818;stroke-width:0.5;" x1="80.5" x2="615.5" y1="843.7969" y2="843.7969"/><text fill="#000000" font-family="sans-serif" font-size="14" lengthAdjust="spacing" textLength="525" x="85.5" y="860.792">parse(canvas: Canvas, str: String, defaultCommand: Command): ErrorOption</text></g><!--class Command--><g id="elem_Command"><rect codeLine="42" fill="#F1F1F1" height="80.5938" id="Command" rx="2.5" ry="2.5" style="stroke:#181818;stroke-width:0.5;" width="134" x="79" y="962"/><ellipse cx="107.95" cy="978" fill="#EB937F" rx="11" ry="11" style="stroke:#181818;stroke-width:1.0;"/><path d="M112.0594,984 L104.3406,984 L104.3406,971.6094 L112.0594,971.6094 L112.0594,973.7656 L106.7938,973.7656 L106.7938,976.4375 L111.5594,976.4375 L111.5594,978.5938 L106.7938,978.5938 L106.7938,981.8438 L112.0594,981.8438 L112.0594,984 Z " fill="#000000"/><text fill="#000000" font-family="sans-serif" font-size="14" lengthAdjust="spacing" textLength="71" x="125.05" y="982.8467">Command</text><line style="stroke:#181818;stroke-width:0.5;" x1="80" x2="212" y1="994" y2="994"/><line style="stroke:#181818;stroke-width:0.5;" x1="80" x2="212" y1="1002" y2="1002"/><text fill="#000000" font-family="sans-serif" font-size="14" lengthAdjust="spacing" textLength="122" x="85" y="1018.9951">draw(color: Color)</text><text fill="#000000" font-family="sans-serif" font-size="14" lengthAdjust="spacing" textLength="102" x="85" y="1035.292">fill(color: Color)</text></g><!--class PixelsCanvas--><g id="elem_PixelsCanvas"><rect codeLine="47" fill="#F1F1F1" height="64.2969" id="PixelsCanvas" rx="2.5" ry="2.5" style="stroke:#181818;stroke-width:0.5;" width="121" x="651.5" y="814"/><ellipse cx="666.5" cy="830" fill="#ADD1B2" rx="11" ry="11" style="stroke:#181818;stroke-width:1.0;"/><path d="M669.4688,835.6406 Q668.8906,835.9375 668.25,836.0781 Q667.6094,836.2344 666.9063,836.2344 Q664.4063,836.2344 663.0781,834.5938 Q661.7656,832.9375 661.7656,829.8125 Q661.7656,826.6875 663.0781,825.0313 Q664.4063,823.375 666.9063,823.375 Q667.6094,823.375 668.25,823.5313 Q668.9063,823.6875 669.4688,823.9844 L669.4688,826.7031 Q668.8438,826.125 668.25,825.8594 Q667.6563,825.5781 667.0313,825.5781 Q665.6875,825.5781 665,826.6563 Q664.3125,827.7188 664.3125,829.8125 Q664.3125,831.9063 665,832.9844 Q665.6875,834.0469 667.0313,834.0469 Q667.6563,834.0469 668.25,833.7813 Q668.8438,833.5 669.4688,832.9219 L669.4688,835.6406 Z " fill="#000000"/><text fill="#000000" font-family="sans-serif" font-size="14" lengthAdjust="spacing" textLength="89" x="680.5" y="834.8467">PixelsCanvas</text><line style="stroke:#181818;stroke-width:0.5;" x1="652.5" x2="771.5" y1="846" y2="846"/><text fill="#000000" font-family="sans-serif" font-size="14" lengthAdjust="spacing" textLength="12" x="657.5" y="862.9951">...</text><line style="stroke:#181818;stroke-width:0.5;" x1="652.5" x2="771.5" y1="870.2969" y2="870.2969"/></g><!--class Point--><g id="elem_Point"><rect codeLine="51" fill="#F1F1F1" height="80.5938" id="Point" rx="2.5" ry="2.5" style="stroke:#181818;stroke-width:0.5;" width="67" x="458.5" y="1127"/><ellipse cx="473.5" cy="1143" fill="#F1F1F1" rx="11" ry="11" style="stroke:#181818;stroke-width:1.0;"/><path d="M472.9844,1143.5625 Q471.125,1142.8594 470.4688,1142.0938 Q469.8281,1141.3125 469.8281,1140 Q469.8281,1138.3125 470.9063,1137.3438 Q471.9844,1136.375 473.8594,1136.375 Q474.7188,1136.375 475.5625,1136.5781 Q476.4219,1136.7656 477.2656,1137.1563 L477.2656,1139.5469 Q476.4844,1138.9844 475.6563,1138.7031 Q474.8438,1138.4063 474.0469,1138.4063 Q473.1719,1138.4063 472.6875,1138.7656 Q472.2188,1139.125 472.2188,1139.7813 Q472.2188,1140.2969 472.5625,1140.6406 Q472.9063,1140.9688 474,1141.375 L475.0625,1141.7813 Q476.5469,1142.3281 477.25,1143.2344 Q477.9688,1144.1406 477.9688,1145.5156 Q477.9688,1147.3906 476.8594,1148.3125 Q475.75,1149.2344 473.5,1149.2344 Q472.5781,1149.2344 471.6563,1149.0156 Q470.7344,1148.7969 469.875,1148.375 L469.875,1145.8438 Q470.8438,1146.5313 471.7656,1146.875 Q472.6875,1147.2188 473.5781,1147.2188 Q474.4844,1147.2188 474.9844,1146.8125 Q475.4844,1146.3906 475.4844,1145.6563 Q475.4844,1145.0938 475.1406,1144.6875 Q474.8125,1144.2656 474.1875,1144.0156 L472.9844,1143.5625 Z " fill="#000000"/><text fill="#000000" font-family="sans-serif" font-size="14" lengthAdjust="spacing" textLength="35" x="487.5" y="1147.8467">Point</text><line style="stroke:#181818;stroke-width:0.5;" x1="459.5" x2="524.5" y1="1159" y2="1159"/><text fill="#000000" font-family="sans-serif" font-size="14" lengthAdjust="spacing" textLength="49" x="464.5" y="1175.9951">x: Float</text><text fill="#000000" font-family="sans-serif" font-size="14" lengthAdjust="spacing" textLength="49" x="464.5" y="1192.292">y: Float</text><line style="stroke:#181818;stroke-width:0.5;" x1="459.5" x2="524.5" y1="1199.5938" y2="1199.5938"/></g><!--class IntPoint--><g id="elem_IntPoint"><rect codeLine="56" fill="#F1F1F1" height="80.5938" id="IntPoint" rx="2.5" ry="2.5" style="stroke:#181818;stroke-width:0.5;" width="84" x="808" y="962"/><ellipse cx="823" cy="978" fill="#F1F1F1" rx="11" ry="11" style="stroke:#181818;stroke-width:1.0;"/><path d="M822.4844,978.5625 Q820.625,977.8594 819.9688,977.0938 Q819.3281,976.3125 819.3281,975 Q819.3281,973.3125 820.4063,972.3438 Q821.4844,971.375 823.3594,971.375 Q824.2188,971.375 825.0625,971.5781 Q825.9219,971.7656 826.7656,972.1563 L826.7656,974.5469 Q825.9844,973.9844 825.1563,973.7031 Q824.3438,973.4063 823.5469,973.4063 Q822.6719,973.4063 822.1875,973.7656 Q821.7188,974.125 821.7188,974.7813 Q821.7188,975.2969 822.0625,975.6406 Q822.4063,975.9688 823.5,976.375 L824.5625,976.7813 Q826.0469,977.3281 826.75,978.2344 Q827.4688,979.1406 827.4688,980.5156 Q827.4688,982.3906 826.3594,983.3125 Q825.25,984.2344 823,984.2344 Q822.0781,984.2344 821.1563,984.0156 Q820.2344,983.7969 819.375,983.375 L819.375,980.8438 Q820.3438,981.5313 821.2656,981.875 Q822.1875,982.2188 823.0781,982.2188 Q823.9844,982.2188 824.4844,981.8125 Q824.9844,981.3906 824.9844,980.6563 Q824.9844,980.0938 824.6406,979.6875 Q824.3125,979.2656 823.6875,979.0156 L822.4844,978.5625 Z " fill="#000000"/><text fill="#000000" font-family="sans-serif" font-size="14" lengthAdjust="spacing" textLength="52" x="837" y="982.8467">IntPoint</text><line style="stroke:#181818;stroke-width:0.5;" x1="809" x2="891" y1="994" y2="994"/><text fill="#000000" font-family="sans-serif" font-size="14" lengthAdjust="spacing" textLength="33" x="814" y="1010.9951">x: Int</text><text fill="#000000" font-family="sans-serif" font-size="14" lengthAdjust="spacing" textLength="33" x="814" y="1027.292">y: Int</text><line style="stroke:#181818;stroke-width:0.5;" x1="809" x2="891" y1="1034.5938" y2="1034.5938"/></g><!--class Canvas--><g id="elem_Canvas"><rect codeLine="61" fill="#F1F1F1" height="129.4844" id="Canvas" rx="2.5" ry="2.5" style="stroke:#181818;stroke-width:0.5;" width="488" x="248" y="938"/><ellipse cx="462.75" cy="954" fill="#B4A7E5" rx="11" ry="11" style="stroke:#181818;stroke-width:1.0;"/><path d="M458.6719,949.7656 L458.6719,947.6094 L466.0625,947.6094 L466.0625,949.7656 L463.5938,949.7656 L463.5938,957.8438 L466.0625,957.8438 L466.0625,960 L458.6719,960 L458.6719,957.8438 L461.1406,957.8438 L461.1406,949.7656 L458.6719,949.7656 Z " fill="#000000"/><text fill="#000000" font-family="sans-serif" font-size="14" font-style="italic" lengthAdjust="spacing" textLength="50" x="483.25" y="958.8467">Canvas</text><line style="stroke:#181818;stroke-width:0.5;" x1="249" x2="735" y1="970" y2="970"/><line style="stroke:#181818;stroke-width:0.5;" x1="249" x2="735" y1="978" y2="978"/><text fill="#000000" font-family="sans-serif" font-size="14" lengthAdjust="spacing" textLength="346" x="254" y="994.9951">boundingBox(p1: Point, p2: Point, cmdId: Int): Unit</text><text fill="#000000" font-family="sans-serif" font-size="14" lengthAdjust="spacing" textLength="435" x="254" y="1011.292">line(command: Command, p1: Point, p2: Point, cmdId: Int): Unit</text><text fill="#000000" font-family="sans-serif" font-size="14" lengthAdjust="spacing" textLength="476" x="254" y="1027.5889">rectangle(command: Command, p1: Point, p2: Point, cmdId: Int): Unit</text><text fill="#000000" font-family="sans-serif" font-size="14" lengthAdjust="spacing" textLength="432" x="254" y="1043.8857">circle(command: Command, p1: Point, r: Float, cmdId: Int): Unit</text><text fill="#000000" font-family="sans-serif" font-size="14" lengthAdjust="spacing" textLength="450" x="254" y="1060.1826">text(command: Command, p1: Point, text: String, cmdId: Int): Unit</text></g><g id="elem_draw_functions"><rect fill="#F1F1F1" height="77.1875" style="stroke:#181818;stroke-width:0.5;" width="592" x="300" y="480"/><text fill="#000000" font-family="sans-serif" font-size="14" lengthAdjust="spacing" textLength="104" x="544" y="494.9951">draw_functions</text><line style="stroke:#181818;stroke-width:0.5;" x1="301" x2="891" y1="500.2969" y2="500.2969"/><text fill="#000000" font-family="sans-serif" font-size="14" lengthAdjust="spacing" textLength="538" x="306" y="517.292">drawLine(command: Command, p1: IntPoint, p2: IntPoint): Map[(Int, Int), Color]</text><text fill="#000000" font-family="sans-serif" font-size="14" lengthAdjust="spacing" textLength="580" x="306" y="533.5889">drawRectangle(command: Command, p1: IntPoint, p2: IntPoint): Map[(Int, Int), Color]</text><text fill="#000000" font-family="sans-serif" font-size="14" lengthAdjust="spacing" textLength="500" x="306" y="549.8857">drawCircle(command: Command, p1: IntPoint, r: Int): Map[(Int, Int), Color]</text></g><!--class FakeCanvas--><g id="elem_FakeCanvas"><rect codeLine="75" fill="#F1F1F1" height="129.4844" id="FakeCanvas" rx="2.5" ry="2.5" style="stroke:#181818;stroke-width:0.5;" width="488" x="318" y="1329"/><ellipse cx="516.25" cy="1345" fill="#ADD1B2" rx="11" ry="11" style="stroke:#181818;stroke-width:1.0;"/><path d="M519.2188,1350.6406 Q518.6406,1350.9375 518,1351.0781 Q517.3594,1351.2344 516.6563,1351.2344 Q514.1563,1351.2344 512.8281,1349.5938 Q511.5156,1347.9375 511.5156,1344.8125 Q511.5156,1341.6875 512.8281,1340.0313 Q514.1563,1338.375 516.6563,1338.375 Q517.3594,1338.375 518,1338.5313 Q518.6563,1338.6875 519.2188,1338.9844 L519.2188,1341.7031 Q518.5938,1341.125 518,1340.8594 Q517.4063,1340.5781 516.7813,1340.5781 Q515.4375,1340.5781 514.75,1341.6563 Q514.0625,1342.7188 514.0625,1344.8125 Q514.0625,1346.9063 514.75,1347.9844 Q515.4375,1349.0469 516.7813,1349.0469 Q517.4063,1349.0469 518,1348.7813 Q518.5938,1348.5 519.2188,1347.9219 L519.2188,1350.6406 Z " fill="#000000"/><text fill="#000000" font-family="sans-serif" font-size="14" lengthAdjust="spacing" textLength="83" x="536.75" y="1349.8467">FakeCanvas</text><line style="stroke:#181818;stroke-width:0.5;" x1="319" x2="805" y1="1361" y2="1361"/><line style="stroke:#181818;stroke-width:0.5;" x1="319" x2="805" y1="1369" y2="1369"/><text fill="#000000" font-family="sans-serif" font-size="14" lengthAdjust="spacing" textLength="346" x="324" y="1385.9951">boundingBox(p1: Point, p2: Point, cmdId: Int): Unit</text><text fill="#000000" font-family="sans-serif" font-size="14" lengthAdjust="spacing" textLength="435" x="324" y="1402.292">line(command: Command, p1: Point, p2: Point, cmdId: Int): Unit</text><text fill="#000000" font-family="sans-serif" font-size="14" lengthAdjust="spacing" textLength="476" x="324" y="1418.5889">rectangle(command: Command, p1: Point, p2: Point, cmdId: Int): Unit</text><text fill="#000000" font-family="sans-serif" font-size="14" lengthAdjust="spacing" textLength="432" x="324" y="1434.8857">circle(command: Command, p1: Point, r: Float, cmdId: Int): Unit</text><text fill="#000000" font-family="sans-serif" font-size="14" lengthAdjust="spacing" textLength="450" x="324" y="1451.1826">text(command: Command, p1: Point, text: String, cmdId: Int): Unit</text></g><!--reverse link Canvas to FakeCanvas--><g id="link_Canvas_FakeCanvas"><path codeLine="82" d="M529.8137,1083.8709 C537.6737,1102.7009 538.29,1107.02 543,1127 C558.96,1194.69 562.72,1274.55 563.11,1328.88 " fill="none" id="Canvas-backto-FakeCanvas" style="stroke:#181818;stroke-width:1.0;stroke-dasharray:7.0,7.0;"/><polygon fill="none" points="522.88,1067.26,524.2767,1086.1822,535.3507,1081.5597,522.88,1067.26" style="stroke:#181818;stroke-width:1.0;"/></g><!--link PixelsCanvas to Canvas--><g id="link_PixelsCanvas_Canvas"><path codeLine="83" d="M667.74,878.08 C643.28,895.26 626.6797,906.9142 597.2797,927.5642 " fill="none" id="PixelsCanvas-to-Canvas" style="stroke:#181818;stroke-width:1.0;stroke-dasharray:7.0,7.0;"/><polygon fill="none" points="582.55,937.91,600.7283,932.474,593.8311,922.6543,582.55,937.91" style="stroke:#181818;stroke-width:1.0;"/></g><!--reverse link draw_functions to PixelsCanvas--><g id="link_draw_functions_PixelsCanvas"><path codeLine="85" d="M611.4342,562.8118 C634.5742,627.7418 679.54,753.91 700.94,813.95 " fill="none" id="draw_functions-backto-PixelsCanvas" style="stroke:#181818;stroke-width:1.0;"/><polygon fill="#181818" points="609.42,557.16,608.6734,566.9805,611.0985,561.8698,616.2092,564.2949,609.42,557.16" style="stroke:#181818;stroke-width:1.0;"/></g><!--link Canvas to Point--><g id="link_Canvas_Point"><path codeLine="86" d="M492,1067.45 C492,1087.43 492,1102.89 492,1120.7 " fill="none" id="Canvas-to-Point" style="stroke:#181818;stroke-width:1.0;"/><polygon fill="#181818" points="492,1126.7,496,1117.7,492,1121.7,488,1117.7,492,1126.7" style="stroke:#181818;stroke-width:1.0;"/></g><!--link PixelsCanvas to Point--><g id="link_PixelsCanvas_Point"><path codeLine="87" d="M731.2,878.04 C756.63,923.55 793.86,1009.23 754,1067 C701.78,1142.69 589.8434,1160.4045 531.6934,1164.7345 " fill="none" id="PixelsCanvas-to-Point" style="stroke:#181818;stroke-width:1.0;"/><polygon fill="#181818" points="525.71,1165.18,534.9822,1168.5006,530.6962,1164.8087,534.3881,1160.5227,525.71,1165.18" style="stroke:#181818;stroke-width:1.0;"/></g><!--link PixelsCanvas to IntPoint--><g id="link_PixelsCanvas_IntPoint"><path codeLine="88" d="M739.93,878.27 C761.43,902.34 787.2936,931.2947 810.4936,957.2747 " fill="none" id="PixelsCanvas-to-IntPoint" style="stroke:#181818;stroke-width:1.0;"/><polygon fill="#181818" points="814.49,961.75,811.4789,952.3727,811.1596,958.0206,805.5118,957.7013,814.49,961.75" style="stroke:#181818;stroke-width:1.0;"/></g><!--link converter to PixelsCanvas--><g id="link_converter_PixelsCanvas"><path codeLine="89" d="M463.84,720.64 C520.15,729.34 581.9,744.55 634,771 C654.31,781.31 668.9184,794.1745 682.8984,809.4445 " fill="none" id="converter-to-PixelsCanvas" style="stroke:#181818;stroke-width:1.0;"/><polygon fill="#181818" points="686.95,813.87,683.8229,804.5308,683.5737,810.1821,677.9223,809.9329,686.95,813.87" style="stroke:#181818;stroke-width:1.0;"/></g><!--link functions to Canvas--><g id="link_functions_Canvas"><path codeLine="90" d="M368.33,868.81 C385.07,886.78 405.6093,908.8107 428.4893,933.3607 " fill="none" id="functions-to-Canvas" style="stroke:#181818;stroke-width:1.0;"/><polygon fill="#181818" points="432.58,937.75,429.3701,928.4389,429.1711,934.0922,423.5177,933.8932,432.58,937.75" style="stroke:#181818;stroke-width:1.0;"/></g><!--reverse link ResultFromScala to converter--><g id="link_ResultFromScala_converter"><path codeLine="91" d="M127.1152,344.0777 C138.9952,402.0177 168.02,523.07 221,618 C233.22,639.89 251.24,661.41 266.67,677.86 " fill="none" id="ResultFromScala-backto-converter" style="stroke:#181818;stroke-width:1.0;"/><polygon fill="#181818" points="125.91,338.2,123.7993,347.82,126.9143,343.0981,131.6362,346.2131,125.91,338.2" style="stroke:#181818;stroke-width:1.0;"/></g><!--link functions to Command--><g id="link_functions_Command"><path codeLine="92" d="M319.49,868.81 C287.95,892.93 241.2458,928.6548 202.5458,958.2548 " fill="none" id="functions-to-Command" style="stroke:#181818;stroke-width:1.0;"/><polygon fill="#181818" points="197.78,961.9,207.3588,959.6095,201.7515,958.8624,202.4986,953.2551,197.78,961.9" style="stroke:#181818;stroke-width:1.0;"/></g><!--link converter to functions--><g id="link_converter_functions"><path codeLine="93" d="M308.19,739.24 C317.75,764.63 329.167,794.9544 337.727,817.7044 " fill="none" id="converter-to-functions" style="stroke:#181818;stroke-width:1.0;"/><polygon fill="#181818" points="339.84,823.32,340.4143,813.4879,338.0792,818.6403,332.9268,816.3052,339.84,823.32" style="stroke:#181818;stroke-width:1.0;"/></g><!--link GUI to converter--><g id="link_GUI_converter"><path codeLine="94" d="M159.11,172.72 C176.53,187.11 197.84,207.81 210,231 C251.5,310.13 283.4075,580.2445 293.2675,671.7945 " fill="none" id="GUI-to-converter" style="stroke:#181818;stroke-width:1.0;"/><polygon fill="#181818" points="293.91,677.76,296.9233,668.3834,293.3746,672.7887,288.9693,669.2401,293.91,677.76" style="stroke:#181818;stroke-width:1.0;"/></g><!--link GUI to ResultFromScala--><g id="link_GUI_ResultFromScala"><path codeLine="95" d="M129.33,175.24 C127.44,201.57 124.77,238.6354 122.67,267.8654 " fill="none" id="GUI-to-ResultFromScala" style="stroke:#181818;stroke-width:1.0;"/><polygon fill="#181818" points="122.24,273.85,126.8747,265.1598,122.5983,268.8629,118.8952,264.5865,122.24,273.85" style="stroke:#181818;stroke-width:1.0;"/></g><!--link draw_functions to IntPoint--><g id="link_draw_functions_IntPoint"><path codeLine="97" d="M633,557.08 C676.72,603.54 748.73,686.83 790,771 C820.86,833.93 836.2106,908.654 843.7106,955.964 " fill="none" id="draw_functions-to-IntPoint" style="stroke:#181818;stroke-width:1.0;"/><polygon fill="#181818" points="844.65,961.89,847.1915,952.3747,843.8671,956.9517,839.2902,953.6273,844.65,961.89" style="stroke:#181818;stroke-width:1.0;"/></g><!--SRC=[fLPDZzem4BtdLvYzB4WGgJrou51KAgfMNUrsJrM5PXt31XmxiXqMrEv_xpWcYUCGK4KkQy-RUJEUB_PUxrAHWuACy5GmSymPaSgyokX-a2lOP40u76LXYCwO0G5Hb0FTmOQHhx07yYSY-ArJpiZTb-Tbl4NX7G5DyBBQDXgr5iehs8FiHpde4WZaxr7xz1vvFWkJSjruBQ-XNqVyo7J1pKB9x8a2Xy197CSTD-We6YHiZNdXKcp8GtfWNCz1x46lC1klCj73KQdy8WkHf6BpIHw6-OSfUP2fC6EIVwoFD4kMoPGiXHbDoRD8JMbdSpwaCij083Xt1xJx3mh5ADPbms_beQcYrqZKb2ouX5uEmmxcCeFLc98dep1PvrW6J2HDofjcyslcAa-bs3Dbc8grnShorxAL3ceiNxQOfqOXA7_kbNRQAdIxHPrvzKIfgwTW-45_NMfQd3VTYji9-e9U5uAQL0eT1csjXlGKj0jtJBHHJO8nbO1HpOEIOBYVbPBgHsvv8o_M-iX4aLNgWTz4mHkcW4jb2V7FYBHmV2Hlu-SSkAdqKtrn9EiZlg_0f9Jz55WSJktP4Xv3OPSB-w-73f6Gp1TvL6ZEr1ee8sSVSs5tz3I9pRBN8lRQro0brjSb5lpMlsQgjxiDKTsmGRv3_ckuj80Tpx6hvEyEzUELzNCh__pIMch8LRL5hj3sJkDFfard8gsmatJNk0lOiLigRNzSF8uuBl8u_ZixTK_KcWiVQ2EJIP5F9hEW0w8QdRav2OrwnLL2esPHbjh-GcmQpK8deQ_lGWhtOM3coXZuQLvW_msOu9V8Du50hNO2klHHC0Ijr_m3]--></g></svg>